# xmcd
#
# Track frame offsets: 
#        150
#        26533
#        47218
#        67795
#        88702
#        104529
#        125995
#        141330
#        161134
#        179837
#        206479
#        227815
#        243912
#        260206
#        277637
#        295320
#
# Disc length: 4185 seconds
#
# Revision: 1
# Processed by: cddbd v1.5.2PL0 Copyright (c) Steve Scherf et al.
# Submitted via: ExactAudioCopyFreeDBPlugin 1.0
#
DISCID=f7105710
DTITLE=CDS制作 - TEST-CD-02A【试音极品碟】
DYEAR=2013
DGENRE=stereo
TTITLE0=萨顶顶之神香
TTITLE1=祈祷
TTITLE2=要去遥远的地方
TTITLE3=送君
TTITLE4=我怎能离开你
TTITLE5=离别的叮咛
TTITLE6=不了情
TTITLE7=相思
TTITLE8=我有一段情
TTITLE9=情人
TTITLE10=蓝眼泪
TTITLE11=梦驼铃
TTITLE12=爱和梦
TTITLE13=雨中追忆
TTITLE14=娘心
TTITLE15=念亲恩
EXTD=
EXTT0=
EXTT1=
EXTT2=
EXTT3=
EXTT4=
EXTT5=
EXTT6=
EXTT7=
EXTT8=
EXTT9=
EXTT10=
EXTT11=
EXTT12=
EXTT13=
EXTT14=
EXTT15=
PLAYORDER=
